<svg width="117" height="35" viewBox="0 0 117 35" fill="none" xmlns="http://www.w3.org/2000/svg">
<path d="M15.7639 0.306641C17.9593 0.306641 19.8129 1.06895 21.2885 2.61263C22.7641 4.13724 23.5019 6.04302 23.5019 8.31089C23.5019 10.5788 22.7641 12.4845 21.2885 14.0091C19.7949 15.5338 17.9593 16.3151 15.7639 16.3151H10.1133V0.306641H15.7639ZM15.7639 12.5989C16.9516 12.5989 17.9413 12.1987 18.6971 11.3982C19.453 10.5978 19.8309 9.5687 19.8309 8.29183C19.8309 7.01496 19.453 5.96679 18.6971 5.18542C17.9413 4.40405 16.9516 4.00384 15.7639 4.00384H13.7844V12.5989H15.7639Z" fill="black"/>
<path d="M34.2472 16.3151L30.6841 10.7503H29.5324V16.3151H25.8613V0.306641H32.5917C34.1933 0.306641 35.4529 0.783084 36.3887 1.73597C37.3245 2.68886 37.7924 3.98478 37.7924 5.6428C37.7924 8.10125 36.7846 9.68304 34.7691 10.3691L38.7461 16.2961H34.2472V16.3151ZM34.0673 5.69998C34.0673 4.57557 33.4374 4.00384 32.1958 4.00384H29.5324V7.33894H32.1958C33.4374 7.33894 34.0673 6.78627 34.0673 5.69998Z" fill="black"/>
<path d="M51.5213 16.3151L50.4416 12.9991H44.791L43.7113 16.3151H39.8242L45.3129 0.306641H49.9377L55.4263 16.3151H51.5213ZM45.9967 9.28283H49.2359L47.6163 4.28971L45.9967 9.28283Z" fill="black"/>
<path d="M62.8955 7.45159H71.2994V16.2944H68.1682V14.0646C67.8263 14.8079 67.2324 15.4177 66.3866 15.8942C65.5408 16.3706 64.5511 16.5993 63.4174 16.5993C61.3119 16.5993 59.5483 15.8179 58.1087 14.2552C56.669 12.6925 55.9492 10.7295 55.9492 8.3473C55.9492 5.94602 56.687 3.94496 58.1807 2.36316C59.6563 0.781368 61.5278 0 63.7773 0C65.6128 0 67.1784 0.533617 68.5101 1.58179C69.8418 2.64903 70.7235 4.02119 71.1374 5.73639H67.2144C66.9085 5.08842 66.4586 4.59292 65.8647 4.23082C65.2709 3.86873 64.5691 3.69721 63.7773 3.69721C62.5176 3.69721 61.5278 4.11648 60.772 4.97408C60.0162 5.83168 59.6563 6.95608 59.6563 8.38542C59.6563 9.71946 59.9982 10.8248 60.7 11.7015C61.4019 12.5781 62.3916 12.9974 63.6873 12.9974C64.5331 12.9974 65.2889 12.8068 65.9367 12.4066C66.5846 12.0064 67.0704 11.4347 67.3764 10.6914H62.8775V7.45159H62.8955Z" fill="black"/>
<path d="M75.8484 2.38222C77.36 0.800425 79.2315 0 81.463 0C83.6944 0 85.5659 0.800425 87.0956 2.38222C88.6072 3.98307 89.381 5.94602 89.381 8.29012C89.381 10.6342 88.6252 12.6162 87.0956 14.198C85.5839 15.7989 83.6944 16.5802 81.463 16.5802C79.2315 16.5802 77.36 15.7798 75.8304 14.198C74.3187 12.5972 73.5449 10.6342 73.5449 8.29012C73.5629 5.94602 74.3187 3.98307 75.8484 2.38222ZM84.4682 4.99313C83.6764 4.13553 82.6687 3.6972 81.463 3.6972C80.2573 3.6972 79.2495 4.13553 78.4577 4.99313C77.6659 5.85073 77.27 6.95608 77.27 8.29012C77.27 9.62416 77.6659 10.7295 78.4577 11.5871C79.2495 12.4447 80.2573 12.883 81.463 12.883C82.6687 12.883 83.6764 12.4447 84.4682 11.5871C85.26 10.7295 85.6559 9.62416 85.6559 8.29012C85.6559 6.95608 85.26 5.85073 84.4682 4.99313Z" fill="black"/>
<path d="M101.188 0.306641H104.859V16.3151H100.684L95.0156 6.21454L95.3215 9.60681V16.3151H91.6504V0.306641H95.8254L101.476 10.3882L101.188 6.9959V0.306641Z" fill="black"/>
<path d="M43.4055 34.4187L39.8423 28.8538H38.6906V34.4187H35.0195V18.4102H41.7499C43.3515 18.4102 44.6112 18.8866 45.5469 19.8395C46.4827 20.7924 46.9326 22.1074 46.9326 23.7654C46.9326 26.2239 45.9248 27.8057 43.9093 28.4917L47.8863 34.4187H43.4055ZM43.2435 23.8035C43.2435 22.6791 42.6137 22.1074 41.372 22.1074H38.7086V25.4425H41.372C42.6137 25.4425 43.2435 24.8898 43.2435 23.8035Z" fill="black"/>
<path d="M50.9436 20.4877C52.4553 18.8868 54.3448 18.1055 56.5763 18.1055C58.8077 18.1055 60.6792 18.9059 62.2089 20.4877C63.7205 22.0886 64.4943 24.0515 64.4943 26.3956C64.4943 28.7397 63.7385 30.7218 62.2089 32.3035C60.6972 33.9044 58.8077 34.6858 56.5763 34.6858C54.3448 34.6858 52.4733 33.8853 50.9436 32.3035C49.432 30.7027 48.6582 28.7397 48.6582 26.3956C48.6582 24.0515 49.414 22.0886 50.9436 20.4877ZM59.5635 23.0986C58.7717 22.241 57.764 21.8027 56.5583 21.8027C55.3526 21.8027 54.3448 22.241 53.553 23.0986C52.7612 23.9562 52.3653 25.0616 52.3653 26.3956C52.3653 27.7297 52.7612 28.835 53.553 29.6926C54.3448 30.5502 55.3526 30.9886 56.5583 30.9886C57.764 30.9886 58.7717 30.5502 59.5635 29.6926C60.3553 28.835 60.7512 27.7297 60.7512 26.3956C60.7512 25.0616 60.3553 23.9562 59.5635 23.0986Z" fill="black"/>
<path d="M75.8513 18.4102H79.5943L79.5763 27.8819C79.5763 30.0735 78.9825 31.7696 77.8128 32.9512C76.6431 34.1328 75.1134 34.7236 73.2239 34.7236C71.3344 34.7236 69.8048 34.1328 68.6351 32.9512C67.4654 31.7696 66.8715 30.0735 66.8715 27.8819L66.8535 18.4102H70.5966V27.6532C70.5966 29.902 71.4784 31.0073 73.2239 31.0073C74.9695 31.0073 75.8513 29.8829 75.8513 27.6532V18.4102Z" fill="black"/>
<path d="M93.4326 18.4102V22.1074H89.3116V34.4187H85.6405V22.1074H81.5195V18.4102H93.4326Z" fill="black"/>
<path d="M105.886 22.1069H99.1555V24.4891H105.292V28.1863H99.1555V30.7019H105.886V34.3991H95.4844V18.3906H105.886V22.1069Z" fill="black"/>
<path d="M11.3178 34.7039L8.56445 24.4318L16.4645 29.5774L20.4415 16.7705L26.0381 29.4059L29.5292 25.8611V34.7039H11.3178Z" fill="#010101"/>
<path d="M10.1288 12.5977H2.04883V16.2948H10.1288V12.5977Z" fill="black"/>
<path d="M2.05149 12.5977L0 13.2266L2.05149 14.4462L0 15.0751L2.05149 16.3139V12.5977Z" fill="black"/>
<path d="M113.963 30.7031H105.883V34.4004H113.963V30.7031Z" fill="black"/>
<path d="M113.969 34.4194L116.002 33.7905L113.969 32.5517L116.002 31.9419L113.969 30.7031V34.4194Z" fill="black"/>
</svg>
