<svg width="113" height="35" viewBox="0 0 113 35" fill="none" xmlns="http://www.w3.org/2000/svg">
<path d="M15.356 1.19727C17.4947 1.19727 19.3003 1.93986 20.7377 3.44361C22.1752 4.92879 22.8939 6.78527 22.8939 8.99449C22.8939 11.2037 22.1752 13.0602 20.7377 14.5454C19.2827 16.0305 17.4947 16.7917 15.356 16.7917H9.85156V1.19727H15.356V1.19727ZM15.356 13.1716C16.513 13.1716 17.4771 12.7817 18.2134 12.002C18.9497 11.2223 19.3178 10.2198 19.3178 8.97592C19.3178 7.73208 18.9497 6.71101 18.2134 5.94986C17.4771 5.1887 16.513 4.79884 15.356 4.79884H13.4277V13.1716H15.356V13.1716Z" fill="black"/>
<path d="M33.3624 16.7917L29.8914 11.3708H28.7695V16.7917H25.1934V1.19727H31.7496C33.3098 1.19727 34.5369 1.66139 35.4485 2.58963C36.36 3.51787 36.8158 4.78027 36.8158 6.39541C36.8158 8.79027 35.8341 10.3312 33.8707 10.9995L37.7449 16.7731H33.3624V16.7917ZM33.1871 6.45111C33.1871 5.35578 32.5735 4.79884 31.3639 4.79884H28.7695V8.04768H31.3639C32.5735 8.04768 33.1871 7.5093 33.1871 6.45111Z" fill="black"/>
<path d="M50.1895 16.7917L49.1377 13.5614H43.6332L42.5814 16.7917H38.7949L44.1416 1.19727H48.6468L53.9935 16.7917H50.1895ZM44.8077 9.94129H47.9632L46.3855 5.07731L44.8077 9.94129Z" fill="black"/>
<path d="M61.2686 8.15729H69.4551V16.7714H66.4049V14.5993C66.0718 15.3233 65.4933 15.9174 64.6694 16.3815C63.8455 16.8456 62.8813 17.0684 61.7769 17.0684C59.7259 17.0684 58.008 16.3073 56.6056 14.7849C55.2032 13.2626 54.502 11.3504 54.502 9.02984C54.502 6.69067 55.2207 4.74136 56.6757 3.20048C58.1132 1.6596 59.9363 0.898438 62.1275 0.898438C63.9156 0.898438 65.4407 1.41825 66.7379 2.43932C68.0352 3.47895 68.8941 4.81562 69.2973 6.48646H65.4758C65.1778 5.85525 64.7395 5.37257 64.161 5.01983C63.5825 4.6671 62.8989 4.50002 62.1275 4.50002C60.9004 4.50002 59.9363 4.90844 59.2 5.74386C58.4638 6.57928 58.1132 7.67461 58.1132 9.06697C58.1132 10.3665 58.4462 11.4433 59.1299 12.2973C59.8136 13.1512 60.7777 13.5597 62.0399 13.5597C62.8638 13.5597 63.6001 13.374 64.2311 12.9842C64.8622 12.5943 65.3355 12.0373 65.6335 11.3133H61.251V8.15729H61.2686Z" fill="black"/>
<path d="M73.8864 3.21904C75.359 1.67816 77.1821 0.898438 79.3558 0.898438C81.5296 0.898438 83.3527 1.67816 84.8427 3.21904C86.3153 4.77849 87.0691 6.69066 87.0691 8.97414C87.0691 11.2576 86.3328 13.1884 84.8427 14.7292C83.3702 16.2887 81.5296 17.0498 79.3558 17.0498C77.1821 17.0498 75.359 16.2701 73.8689 14.7292C72.3964 13.1698 71.6426 11.2576 71.6426 8.97414C71.6601 6.69066 72.3964 4.77849 73.8864 3.21904ZM82.2833 5.76242C81.512 4.927 80.5303 4.50001 79.3558 4.50001C78.1813 4.50001 77.1996 4.927 76.4283 5.76242C75.657 6.59784 75.2713 7.6746 75.2713 8.97414C75.2713 10.2737 75.657 11.3504 76.4283 12.1859C77.1996 13.0213 78.1813 13.4483 79.3558 13.4483C80.5303 13.4483 81.512 13.0213 82.2833 12.1859C83.0547 11.3504 83.4403 10.2737 83.4403 8.97414C83.4403 7.6746 83.0547 6.59784 82.2833 5.76242Z" fill="black"/>
<path d="M98.5702 1.19727H102.146V16.7917H98.0794L92.5574 6.95236L92.8554 10.2569V16.7917H89.2793V1.19727H93.3463L98.8507 11.018L98.5702 7.71351V1.19727V1.19727Z" fill="black"/>
<path d="M42.2823 34.4265L38.8113 29.0056H37.6894V34.4265H34.1133V18.832H40.6695C42.2297 18.832 43.4568 19.2962 44.3684 20.2244C45.28 21.1526 45.7182 22.4336 45.7182 24.0488C45.7182 26.4436 44.7365 27.9845 42.7731 28.6529L46.6473 34.4265H42.2823ZM42.1245 24.0859C42.1245 22.9906 41.511 22.4336 40.3014 22.4336H37.707V25.6825H40.3014C41.511 25.6825 42.1245 25.1441 42.1245 24.0859Z" fill="black"/>
<path d="M49.6267 20.8558C51.0992 19.2963 52.9399 18.5352 55.1136 18.5352C57.2874 18.5352 59.1105 19.3149 60.6006 20.8558C62.0731 22.4152 62.8269 24.3274 62.8269 26.6109C62.8269 28.8944 62.0906 30.8251 60.6006 32.366C59.128 33.9255 57.2874 34.6866 55.1136 34.6866C52.9399 34.6866 51.1168 33.9069 49.6267 32.366C48.1542 30.8066 47.4004 28.8944 47.4004 26.6109C47.4004 24.3274 48.1367 22.4152 49.6267 20.8558ZM58.0236 23.3992C57.2523 22.5637 56.2706 22.1367 55.0961 22.1367C53.9216 22.1367 52.9399 22.5637 52.1686 23.3992C51.3973 24.2346 51.0116 25.3113 51.0116 26.6109C51.0116 27.9104 51.3973 28.9872 52.1686 29.8226C52.9399 30.658 53.9216 31.085 55.0961 31.085C56.2706 31.085 57.2523 30.658 58.0236 29.8226C58.795 28.9872 59.1806 27.9104 59.1806 26.6109C59.1806 25.3113 58.795 24.2346 58.0236 23.3992Z" fill="black"/>
<path d="M73.89 18.832H77.5363L77.5188 28.0588C77.5188 30.1937 76.9403 31.846 75.8008 32.997C74.6614 34.148 73.1713 34.7235 71.3306 34.7235C69.49 34.7235 67.9999 34.148 66.8605 32.997C65.721 31.846 65.1425 30.1937 65.1425 28.0588L65.125 18.832H68.7712V27.836C68.7712 30.0266 69.6302 31.1034 71.3306 31.1034C73.0311 31.1034 73.89 30.0081 73.89 27.836V18.832V18.832Z" fill="black"/>
<path d="M91.0151 18.832V22.4336H87.0007V34.4265H83.4245V22.4336H79.4102V18.832H91.0151Z" fill="black"/>
<path d="M103.148 22.4336H96.5918V24.7542H102.57V28.3558H96.5918V30.8063H103.148V34.4079H93.0156V18.8135H103.148V22.4336Z" fill="black"/>
<path d="M11.0259 34.7049L8.34375 24.6985L16.0395 29.711L19.9136 17.2354L25.3655 29.5439L28.7663 26.0908V34.7049H11.0259Z" fill="#010101"/>
<path d="M9.8671 13.1699H1.99609V16.7715H9.8671V13.1699Z" fill="black"/>
<path d="M1.99843 13.1699L0 13.7826L1.99843 14.9707L0 15.5833L1.99843 16.79V13.1699Z" fill="black"/>
<path d="M111.017 30.8076H103.146V34.4093H111.017V30.8076Z" fill="black"/>
<path d="M111.02 34.4278L113 33.8151L111.02 32.6084L113 32.0143L111.02 30.8076V34.4278Z" fill="black"/>
</svg>
